<?xml version="1.0" encoding="UTF-8"?>
<svg id="Layer_2" xmlns="http://www.w3.org/2000/svg" viewBox="0 0 81.86 108.37">
  <defs>
    <style>
      .cls-1 {
        fill: none;
        stroke: #957f56;
        stroke-miterlimit: 10;
      }
    </style>
  </defs>
  <g id="Layer_1-2" data-name="Layer_1">
    <g>
      <path class="cls-1" d="M75.06,19.58c-7.65-6.47-18.57-12.14-31-12.14"/>
      <path class="cls-1" d="M70.04,22.97c-5.81-4.99-15.99-9.32-24.18-9.46"/>
      <path class="cls-1" d="M58.28,33.73v-16.88c0-.21-.26-.3-.38-.13-1.45,1.98-6.59,9.2-8.29,14.07"/>
      <path class="cls-1" d="M81.11,16.77c-7.89,1.47-24.62,16.96-30.11,26.65"/>
      <path class="cls-1" d="M60.65,56.75c4-19.47,12.21-32.26,20.46-39.98C73.46,10.3,62.01,1.14,40.95.52c0,0,16.26,33.89,7.33,70.69"/>
      <path class="cls-1" d="M40.93,55.08c3.62,5.01,7.88,11.9,8.96,28.64"/>
      <path class="cls-1" d="M63.28,55.08c-2.2,19.15-7.54,30.16-22.33,31.14"/>
      <path class="cls-1" d="M40.93,66.94c2.97,4.69,3.78,10.46,4.01,18.73,0,0-1.27,11.02-1.23,22.12l-2.77.09"/>
      <path class="cls-1" d="M48.28,71.22c5.65-10.76,14.98-15.9,14.98-15.9"/>
      <path class="cls-1" d="M6.8,19.58c7.65-6.47,18.57-12.14,31-12.14"/>
      <path class="cls-1" d="M11.82,22.97c5.81-4.99,15.99-9.32,24.18-9.46"/>
      <path class="cls-1" d="M23.58,33.73v-17.06c0-.15.19-.22.28-.09,1.29,1.76,6.65,9.22,8.39,14.21"/>
      <path class="cls-1" d="M.75,16.77c7.89,1.47,24.62,16.96,30.11,26.65"/>
      <path class="cls-1" d="M21.21,56.75C17.21,37.28,9,24.5.75,16.77,8.4,10.3,19.85,1.14,40.91.52c0,0-16.26,33.89-7.33,70.69"/>
      <path class="cls-1" d="M40.93,55.08c-3.62,5.01-7.88,11.9-8.96,28.64"/>
      <path class="cls-1" d="M18.58,55.08c2.2,19.15,7.54,30.16,22.33,31.14"/>
      <path class="cls-1" d="M40.93,66.94c-2.97,4.69-3.78,10.46-4.01,18.73,0,0,1.27,11.02,1.23,22.12l2.77.09"/>
      <path class="cls-1" d="M33.58,71.22c-5.65-10.76-14.98-15.9-14.98-15.9"/>
    </g>
  </g>
</svg>