<svg xmlns="http://www.w3.org/2000/svg" xmlns:xlink="http://www.w3.org/1999/xlink" width="500" zoomAndPan="magnify" viewBox="0 0 375 374.999991" height="500" preserveAspectRatio="xMidYMid meet" version="1.0"><defs><clipPath id="f7bf7569b4"><path d="M 78 94.226562 L 296 94.226562 L 296 280.976562 L 78 280.976562 Z M 78 94.226562 " clip-rule="nonzero"/></clipPath><clipPath id="61389b994a"><path d="M 37.5 94.226562 L 181 94.226562 L 181 280.976562 L 37.5 280.976562 Z M 37.5 94.226562 " clip-rule="nonzero"/></clipPath><clipPath id="9c5e419e67"><path d="M 37.5 94.226562 L 196 94.226562 L 196 219 L 37.5 219 Z M 37.5 94.226562 " clip-rule="nonzero"/></clipPath><clipPath id="8ea18c552e"><path d="M 37.5 94.226562 L 295 94.226562 L 295 216 L 37.5 216 Z M 37.5 94.226562 " clip-rule="nonzero"/></clipPath><clipPath id="b3930f6d7c"><path d="M 37.5 97 L 296 97 L 296 280.976562 L 37.5 280.976562 Z M 37.5 97 " clip-rule="nonzero"/></clipPath><clipPath id="0e4dbc05e4"><path d="M 37.5 94.226562 L 195 94.226562 L 195 263 L 37.5 263 Z M 37.5 94.226562 " clip-rule="nonzero"/></clipPath><clipPath id="139fe44980"><path d="M 37.5 94.226562 L 170 94.226562 L 170 280.976562 L 37.5 280.976562 Z M 37.5 94.226562 " clip-rule="nonzero"/></clipPath><clipPath id="d4e6c65611"><path d="M 37.5 94.226562 L 295 94.226562 L 295 280.976562 L 37.5 280.976562 Z M 37.5 94.226562 " clip-rule="nonzero"/></clipPath><clipPath id="789b15d137"><path d="M 37.5 98 L 295 98 L 295 280.976562 L 37.5 280.976562 Z M 37.5 98 " clip-rule="nonzero"/></clipPath><clipPath id="388fbadf2c"><path d="M 37.5 94.226562 L 200 94.226562 L 200 280.976562 L 37.5 280.976562 Z M 37.5 94.226562 " clip-rule="nonzero"/></clipPath><clipPath id="c51dff4185"><path d="M 79 94.226562 L 297 94.226562 L 297 280.976562 L 79 280.976562 Z M 79 94.226562 " clip-rule="nonzero"/></clipPath><clipPath id="3a093c8ec1"><path d="M 194 94.226562 L 337.5 94.226562 L 337.5 280.976562 L 194 280.976562 Z M 194 94.226562 " clip-rule="nonzero"/></clipPath><clipPath id="acc6800bf0"><path d="M 179 94.226562 L 337.5 94.226562 L 337.5 219 L 179 219 Z M 179 94.226562 " clip-rule="nonzero"/></clipPath><clipPath id="d3c4f6d957"><path d="M 80 94.226562 L 337.5 94.226562 L 337.5 216 L 80 216 Z M 80 94.226562 " clip-rule="nonzero"/></clipPath><clipPath id="eb0cbc9544"><path d="M 79 97 L 337.5 97 L 337.5 280.976562 L 79 280.976562 Z M 79 97 " clip-rule="nonzero"/></clipPath><clipPath id="3a169ce462"><path d="M 180 94.226562 L 337.5 94.226562 L 337.5 263 L 180 263 Z M 180 94.226562 " clip-rule="nonzero"/></clipPath><clipPath id="87ffd8b30e"><path d="M 205 94.226562 L 337.5 94.226562 L 337.5 280.976562 L 205 280.976562 Z M 205 94.226562 " clip-rule="nonzero"/></clipPath><clipPath id="ab10641474"><path d="M 80 94.226562 L 337.5 94.226562 L 337.5 280.976562 L 80 280.976562 Z M 80 94.226562 " clip-rule="nonzero"/></clipPath><clipPath id="6c9f6dfd00"><path d="M 180 94.226562 L 337.5 94.226562 L 337.5 263 L 180 263 Z M 180 94.226562 " clip-rule="nonzero"/></clipPath><clipPath id="e32261f0f4"><path d="M 80 98 L 337.5 98 L 337.5 280.976562 L 80 280.976562 Z M 80 98 " clip-rule="nonzero"/></clipPath><clipPath id="e430896c66"><path d="M 175 94.226562 L 337.5 94.226562 L 337.5 280.976562 L 175 280.976562 Z M 175 94.226562 " clip-rule="nonzero"/></clipPath><clipPath id="bbcff21544"><path d="M 37.5 116 L 296 116 L 296 280.976562 L 37.5 280.976562 Z M 37.5 116 " clip-rule="nonzero"/></clipPath><clipPath id="f0609178a3"><path d="M 78 116 L 337.5 116 L 337.5 280.976562 L 78 280.976562 Z M 78 116 " clip-rule="nonzero"/></clipPath><clipPath id="fc60eb6bb7"><path d="M 37.5 94.226562 L 247 94.226562 L 247 262 L 37.5 262 Z M 37.5 94.226562 " clip-rule="nonzero"/></clipPath><clipPath id="418735e2eb"><path d="M 127 94.226562 L 337.5 94.226562 L 337.5 262 L 127 262 Z M 127 94.226562 " clip-rule="nonzero"/></clipPath></defs><g clip-path="url(#f7bf7569b4)"><path stroke-linecap="butt" transform="matrix(1.089852, 0, 0, 1.091084, 37.61812, 94.227241)" fill="none" stroke-linejoin="miter" d="M 136.951522 6.841053 L 137.528579 167.661573 " stroke="#231f20" stroke-width="7" stroke-opacity="1" stroke-miterlimit="10"/></g><g clip-path="url(#61389b994a)"><path stroke-linecap="butt" transform="matrix(1.089852, 0, 0, 1.091084, 37.61812, 94.227241)" fill="none" stroke-linejoin="miter" d="M 31.898547 88.57955 C 31.898547 89.445947 31.808942 90.305184 31.626147 91.153681 C 31.446937 92.002177 31.174538 92.829193 30.819702 93.627567 C 30.461282 94.425942 30.024009 95.188515 29.507884 95.908126 C 28.988174 96.627737 28.400365 97.293645 27.740872 97.905852 C 27.081379 98.518058 26.364538 99.065821 25.59035 99.545562 C 24.812579 100.028883 23.99538 100.43344 23.135172 100.766395 C 22.271379 101.095769 21.386081 101.34638 20.468525 101.518227 C 19.554553 101.686494 18.633413 101.768838 17.701521 101.768838 C 16.766044 101.768838 15.844904 101.686494 14.930932 101.518227 C 14.016961 101.34638 13.128078 101.095769 12.264286 100.766395 C 11.404077 100.43344 10.586879 100.028883 9.812691 99.545562 C 9.034919 99.065821 8.318079 98.518058 7.658585 97.905852 C 6.999092 97.293645 6.411283 96.627737 5.891574 95.908126 C 5.375448 95.188515 4.938176 94.425942 4.579755 93.627567 C 4.224919 92.829193 3.956104 92.002177 3.77331 91.153681 C 3.590516 90.305184 3.50091 89.445947 3.50091 88.57955 C 3.50091 87.713153 3.590516 86.857496 3.77331 86.005419 C 3.956104 85.156923 4.224919 84.333487 4.579755 83.531533 C 4.938176 82.733159 5.375448 81.970586 5.891574 81.250975 C 6.411283 80.531364 6.999092 79.865455 7.658585 79.253249 C 8.318079 78.641042 9.034919 78.093279 9.812691 77.613538 C 10.586879 77.130217 11.404077 76.72566 12.264286 76.392706 C 13.128078 76.063332 14.016961 75.812721 14.930932 75.644453 C 15.844904 75.476186 16.766044 75.390263 17.701521 75.390263 C 18.633413 75.390263 19.554553 75.476186 20.468525 75.644453 C 21.386081 75.812721 22.271379 76.063332 23.135172 76.392706 C 23.99538 76.72566 24.812579 77.130217 25.59035 77.613538 C 26.364538 78.093279 27.081379 78.641042 27.740872 79.253249 C 28.400365 79.865455 28.988174 80.531364 29.507884 81.250975 C 30.024009 81.970586 30.461282 82.733159 30.819702 83.531533 C 31.174538 84.333487 31.446937 85.156923 31.626147 86.005419 C 31.808942 86.857496 31.898547 87.713153 31.898547 88.57955 Z M 31.898547 88.57955 " stroke="#231f20" stroke-width="7" stroke-opacity="1" stroke-miterlimit="10"/></g><g clip-path="url(#9c5e419e67)"><path stroke-linecap="butt" transform="matrix(1.089852, 0, 0, 1.091084, 37.61812, 94.227241)" fill="none" stroke-linejoin="miter" d="M 42.249724 15.358239 C 42.249724 13.349773 43.880536 11.710062 45.898442 11.710062 " stroke="#231f20" stroke-width="7" stroke-opacity="1" stroke-miterlimit="10"/></g><path stroke-linecap="butt" transform="matrix(1.089852, 0, 0, 1.091084, 37.61812, 94.227241)" fill="none" stroke-linejoin="miter" d="M 42.249724 15.358239 L 42.249724 50.830406 " stroke="#231f20" stroke-width="7" stroke-opacity="1" stroke-miterlimit="10"/><g clip-path="url(#8ea18c552e)"><path stroke-linecap="butt" transform="matrix(1.089852, 0, 0, 1.091084, 37.61812, 94.227241)" fill="none" stroke-linejoin="miter" d="M 45.898442 11.699322 L 88.220705 11.699322 C 104.561084 9.601351 127.668437 -2.141554 136.951522 6.841053 " stroke="#231f20" stroke-width="7" stroke-opacity="1" stroke-miterlimit="10"/></g><g clip-path="url(#b3930f6d7c)"><path stroke-linecap="butt" transform="matrix(1.089852, 0, 0, 1.091084, 37.61812, 94.227241)" fill="none" stroke-linejoin="miter" d="M 15.84132 101.768838 C 12.31088 132.708529 16.31085 162.828365 18.461372 167.661573 L 137.52141 167.661573 " stroke="#231f20" stroke-width="7" stroke-opacity="1" stroke-miterlimit="10"/></g><g clip-path="url(#0e4dbc05e4)"><path stroke-linecap="butt" transform="matrix(1.089852, 0, 0, 1.091084, 37.61812, 94.227241)" fill="none" stroke-linejoin="miter" d="M 45.238949 54.901041 C 43.708494 50.970032 38.930752 48.059366 33.339396 48.059366 C 28.350186 48.059366 24.009717 50.368566 22.038406 53.669468 " stroke="#231f20" stroke-width="7" stroke-opacity="1" stroke-miterlimit="10"/></g><g clip-path="url(#139fe44980)"><path stroke-linecap="butt" transform="matrix(1.089852, 0, 0, 1.091084, 37.61812, 94.227241)" fill="none" stroke-linejoin="miter" d="M 22.031237 53.680208 L 21.898622 53.909338 L 5.070791 82.568471 " stroke="#231f20" stroke-width="7" stroke-opacity="1" stroke-miterlimit="10"/></g><g clip-path="url(#d4e6c65611)"><path stroke-linecap="butt" transform="matrix(1.089852, 0, 0, 1.091084, 37.61812, 94.227241)" fill="none" stroke-linejoin="miter" d="M 45.238949 54.901041 C 45.238949 54.901041 45.238949 54.918942 45.260454 54.929682 C 45.540022 55.58127 50.321348 67.309855 49.421713 91.189482 C 71.529074 85.038778 107.310167 84.598419 136.95869 91.189482 " stroke="#231f20" stroke-width="7" stroke-opacity="1" stroke-miterlimit="10"/></g><g clip-path="url(#789b15d137)"><path stroke-linecap="butt" transform="matrix(1.089852, 0, 0, 1.091084, 37.61812, 94.227241)" fill="none" stroke-linejoin="miter" d="M 136.951522 107.651031 C 101.851427 101.070708 59.511243 101.511067 33.328644 107.651031 L 33.328644 167.661573 " stroke="#231f20" stroke-width="7" stroke-opacity="1" stroke-miterlimit="10"/></g><g clip-path="url(#388fbadf2c)"><path stroke-linecap="butt" transform="matrix(1.089852, 0, 0, 1.091084, 37.61812, 94.227241)" fill="none" stroke-linejoin="miter" d="M 49.41096 91.189482 L 33.339396 107.651031 C 33.339396 107.651031 33.049076 87.358718 30.819702 83.549434 " stroke="#231f20" stroke-width="7" stroke-opacity="1" stroke-miterlimit="10"/></g><g clip-path="url(#c51dff4185)"><path stroke-linecap="butt" transform="matrix(1.089852, 0, 0, 1.091084, 37.61812, 94.227241)" fill="none" stroke-linejoin="miter" d="M 138.098467 6.841053 L 137.528579 167.661573 " stroke="#231f20" stroke-width="7" stroke-opacity="1" stroke-miterlimit="10"/></g><g clip-path="url(#3a093c8ec1)"><path stroke-linecap="butt" transform="matrix(1.089852, 0, 0, 1.091084, 37.61812, 94.227241)" fill="none" stroke-linejoin="miter" d="M 271.559831 88.57955 C 271.559831 89.445947 271.470226 90.305184 271.287431 91.153681 C 271.104637 92.002177 270.835822 92.829193 270.477402 93.627567 C 270.122566 94.425942 269.685293 95.188515 269.165584 95.908126 C 268.649458 96.627737 268.061649 97.293645 267.402156 97.905852 C 266.742663 98.518058 266.025822 99.065821 265.24805 99.545562 C 264.473862 100.028883 263.656664 100.43344 262.792872 100.766395 C 261.932663 101.095769 261.043781 101.34638 260.129809 101.518227 C 259.215837 101.686494 258.291113 101.768838 257.359221 101.768838 C 256.427328 101.768838 255.502604 101.686494 254.588632 101.518227 C 253.67466 101.34638 252.785778 101.095769 251.92557 100.766395 C 251.065361 100.43344 250.244579 100.028883 249.470391 99.545562 C 248.696203 99.065821 247.979363 98.518058 247.319869 97.905852 C 246.660376 97.293645 246.072567 96.627737 245.552858 95.908126 C 245.036732 95.188515 244.59946 94.425942 244.241039 93.627567 C 243.882619 92.829193 243.613804 92.002177 243.434594 91.153681 C 243.2518 90.305184 243.15861 89.445947 243.15861 88.57955 C 243.15861 87.713153 243.2518 86.857496 243.434594 86.005419 C 243.613804 85.156923 243.882619 84.333487 244.241039 83.531533 C 244.59946 82.733159 245.036732 81.970586 245.552858 81.250975 C 246.072567 80.531364 246.660376 79.865455 247.319869 79.253249 C 247.979363 78.641042 248.696203 78.093279 249.470391 77.613538 C 250.244579 77.130217 251.065361 76.72566 251.92557 76.392706 C 252.785778 76.063332 253.67466 75.812721 254.588632 75.644453 C 255.502604 75.476186 256.427328 75.390263 257.359221 75.390263 C 258.291113 75.390263 259.215837 75.476186 260.129809 75.644453 C 261.043781 75.812721 261.932663 76.063332 262.792872 76.392706 C 263.656664 76.72566 264.473862 77.130217 265.24805 77.613538 C 266.025822 78.093279 266.742663 78.641042 267.402156 79.253249 C 268.061649 79.865455 268.649458 80.531364 269.165584 81.250975 C 269.685293 81.970586 270.122566 82.733159 270.477402 83.531533 C 270.835822 84.333487 271.104637 85.156923 271.287431 86.005419 C 271.470226 86.857496 271.559831 87.713153 271.559831 88.57955 Z M 271.559831 88.57955 " stroke="#231f20" stroke-width="7" stroke-opacity="1" stroke-miterlimit="10"/></g><g clip-path="url(#acc6800bf0)"><path stroke-linecap="butt" transform="matrix(1.089852, 0, 0, 1.091084, 37.61812, 94.227241)" fill="none" stroke-linejoin="miter" d="M 232.800265 15.351079 C 232.800265 13.339032 231.169453 11.710062 229.158715 11.710062 " stroke="#231f20" stroke-width="7" stroke-opacity="1" stroke-miterlimit="10"/></g><path stroke-linecap="butt" transform="matrix(1.089852, 0, 0, 1.091084, 37.61812, 94.227241)" fill="none" stroke-linejoin="miter" d="M 232.800265 15.351079 L 232.800265 50.830406 " stroke="#231f20" stroke-width="7" stroke-opacity="1" stroke-miterlimit="10"/><g clip-path="url(#d3c4f6d957)"><path stroke-linecap="butt" transform="matrix(1.089852, 0, 0, 1.091084, 37.61812, 94.227241)" fill="none" stroke-linejoin="miter" d="M 229.158715 11.720803 L 186.829284 11.720803 C 170.488905 9.601351 147.399472 -2.141554 138.098467 6.841053 " stroke="#231f20" stroke-width="7" stroke-opacity="1" stroke-miterlimit="10"/></g><g clip-path="url(#eb0cbc9544)"><path stroke-linecap="butt" transform="matrix(1.089852, 0, 0, 1.091084, 37.61812, 94.227241)" fill="none" stroke-linejoin="miter" d="M 259.208669 101.768838 C 262.739108 132.708529 258.739138 162.828365 256.588617 167.661573 L 137.528579 167.661573 " stroke="#231f20" stroke-width="7" stroke-opacity="1" stroke-miterlimit="10"/></g><g clip-path="url(#3a169ce462)"><path stroke-linecap="butt" transform="matrix(1.089852, 0, 0, 1.091084, 37.61812, 94.227241)" fill="none" stroke-linejoin="miter" d="M 229.81104 54.911781 C 231.341495 50.980772 236.140742 48.070107 241.710592 48.070107 C 246.810913 48.070107 251.251739 50.490291 253.140614 53.909338 " stroke="#231f20" stroke-width="7" stroke-opacity="1" stroke-miterlimit="10"/><path stroke-linecap="butt" transform="matrix(1.089852, 0, 0, 1.091084, 37.61812, 94.227241)" fill="none" stroke-linejoin="miter" d="M 229.710682 55.169552 C 229.739356 55.090789 229.778782 55.008445 229.789535 54.940423 " stroke="#231f20" stroke-width="7" stroke-opacity="1" stroke-miterlimit="10"/></g><g clip-path="url(#87ffd8b30e)"><path stroke-linecap="butt" transform="matrix(1.089852, 0, 0, 1.091084, 37.61812, 94.227241)" fill="none" stroke-linejoin="miter" d="M 253.018751 53.680208 L 253.151367 53.909338 L 269.98995 82.568471 " stroke="#231f20" stroke-width="7" stroke-opacity="1" stroke-miterlimit="10"/></g><g clip-path="url(#ab10641474)"><path stroke-linecap="butt" transform="matrix(1.089852, 0, 0, 1.091084, 37.61812, 94.227241)" fill="none" stroke-linejoin="miter" d="M 229.69993 55.230415 C 228.879148 57.278263 224.811078 68.978207 225.660534 91.189482 C 203.531667 85.038778 167.768495 84.598419 138.098467 91.189482 " stroke="#231f20" stroke-width="7" stroke-opacity="1" stroke-miterlimit="10"/></g><g clip-path="url(#6c9f6dfd00)"><path stroke-linecap="butt" transform="matrix(1.089852, 0, 0, 1.091084, 37.61812, 94.227241)" fill="none" stroke-linejoin="miter" d="M 229.81104 54.911781 C 229.81104 54.911781 229.81104 54.929682 229.789535 54.940423 C 229.771614 54.969064 229.739356 55.051407 229.710682 55.169552 " stroke="#231f20" stroke-width="7" stroke-opacity="1" stroke-miterlimit="10"/></g><g clip-path="url(#e32261f0f4)"><path stroke-linecap="butt" transform="matrix(1.089852, 0, 0, 1.091084, 37.61812, 94.227241)" fill="none" stroke-linejoin="miter" d="M 138.098467 107.651031 C 173.198562 101.070708 215.538746 101.511067 241.721345 107.651031 L 241.721345 167.661573 " stroke="#231f20" stroke-width="7" stroke-opacity="1" stroke-miterlimit="10"/></g><g clip-path="url(#e430896c66)"><path stroke-linecap="butt" transform="matrix(1.089852, 0, 0, 1.091084, 37.61812, 94.227241)" fill="none" stroke-linejoin="miter" d="M 225.649781 91.189482 L 241.721345 107.651031 C 241.721345 107.651031 242.011665 87.358718 244.241039 83.549434 " stroke="#231f20" stroke-width="7" stroke-opacity="1" stroke-miterlimit="10"/></g><g clip-path="url(#bbcff21544)"><path stroke-linecap="butt" transform="matrix(1.089852, 0, 0, 1.091084, 37.61812, 94.227241)" fill="none" stroke-linejoin="miter" d="M 33.328644 119.508501 C 63.600818 123.568396 137.338616 119.508501 137.52141 119.508501 " stroke="#231f20" stroke-width="7" stroke-opacity="1" stroke-miterlimit="10"/></g><g clip-path="url(#f0609178a3)"><path stroke-linecap="butt" transform="matrix(1.089852, 0, 0, 1.091084, 37.61812, 94.227241)" fill="none" stroke-linejoin="miter" d="M 241.151457 119.508501 C 210.879283 123.568396 137.141485 119.508501 136.95869 119.508501 " stroke="#231f20" stroke-width="7" stroke-opacity="1" stroke-miterlimit="10"/></g><path fill="#231f20" d="M 138.351562 149.6875 C 138.351562 149.941406 138.328125 150.191406 138.273438 150.441406 C 138.222656 150.691406 138.144531 150.933594 138.042969 151.167969 C 137.941406 151.402344 137.816406 151.628906 137.667969 151.839844 C 137.519531 152.050781 137.351562 152.246094 137.164062 152.425781 C 136.972656 152.605469 136.769531 152.765625 136.546875 152.90625 C 136.324219 153.050781 136.089844 153.167969 135.84375 153.265625 C 135.597656 153.363281 135.34375 153.4375 135.082031 153.484375 C 134.820312 153.535156 134.554688 153.558594 134.289062 153.558594 C 134.019531 153.558594 133.757812 153.535156 133.496094 153.484375 C 133.234375 153.4375 132.980469 153.363281 132.730469 153.265625 C 132.484375 153.167969 132.25 153.050781 132.03125 152.90625 C 131.808594 152.765625 131.601562 152.605469 131.414062 152.425781 C 131.226562 152.246094 131.054688 152.050781 130.90625 151.839844 C 130.757812 151.628906 130.632812 151.402344 130.53125 151.167969 C 130.429688 150.933594 130.351562 150.691406 130.300781 150.441406 C 130.25 150.191406 130.222656 149.941406 130.222656 149.6875 C 130.222656 149.433594 130.25 149.179688 130.300781 148.929688 C 130.351562 148.683594 130.429688 148.441406 130.53125 148.203125 C 130.632812 147.96875 130.757812 147.746094 130.90625 147.535156 C 131.054688 147.324219 131.226562 147.128906 131.414062 146.949219 C 131.601562 146.769531 131.808594 146.609375 132.03125 146.464844 C 132.25 146.324219 132.484375 146.207031 132.730469 146.109375 C 132.980469 146.011719 133.234375 145.9375 133.496094 145.886719 C 133.757812 145.839844 134.019531 145.8125 134.289062 145.8125 C 134.554688 145.8125 134.820312 145.839844 135.082031 145.886719 C 135.34375 145.9375 135.597656 146.011719 135.84375 146.109375 C 136.089844 146.207031 136.324219 146.324219 136.546875 146.464844 C 136.769531 146.609375 136.972656 146.769531 137.164062 146.949219 C 137.351562 147.128906 137.519531 147.324219 137.667969 147.535156 C 137.816406 147.746094 137.941406 147.96875 138.042969 148.203125 C 138.144531 148.441406 138.222656 148.683594 138.273438 148.929688 C 138.328125 149.179688 138.351562 149.433594 138.351562 149.6875 Z M 138.351562 149.6875 " fill-opacity="1" fill-rule="nonzero"/><g clip-path="url(#fc60eb6bb7)"><path stroke-linecap="butt" transform="matrix(1.089852, 0, 0, 1.091084, 37.61812, 94.227241)" fill="none" stroke-linejoin="miter" d="M 92.428559 50.830406 C 92.428559 51.063116 92.407053 51.292246 92.356875 51.521375 C 92.31028 51.750505 92.238596 51.972475 92.145407 52.187284 C 92.052217 52.402093 91.937523 52.609742 91.801323 52.803071 C 91.665123 52.996399 91.511003 53.175407 91.338961 53.340094 C 91.163335 53.504781 90.976957 53.651567 90.772657 53.780453 C 90.568357 53.912918 90.353305 54.020323 90.127501 54.109827 C 89.901696 54.199331 89.668723 54.267354 89.428581 54.310315 C 89.18844 54.356857 88.944714 54.378338 88.700988 54.378338 C 88.453678 54.378338 88.213536 54.356857 87.973395 54.310315 C 87.733253 54.267354 87.50028 54.199331 87.270891 54.109827 C 87.045086 54.020323 86.830034 53.912918 86.629319 53.780453 C 86.425019 53.651567 86.235057 53.504781 86.063015 53.340094 C 85.890973 53.175407 85.733268 52.996399 85.597069 52.803071 C 85.460869 52.609742 85.346174 52.402093 85.252985 52.187284 C 85.159796 51.972475 85.088112 51.750505 85.041517 51.521375 C 84.994923 51.292246 84.969833 51.063116 84.969833 50.830406 C 84.969833 50.597696 84.994923 50.364986 85.041517 50.135856 C 85.088112 49.910306 85.159796 49.688336 85.252985 49.469947 C 85.346174 49.255138 85.460869 49.051069 85.597069 48.857741 C 85.733268 48.664412 85.890973 48.485405 86.063015 48.320718 C 86.235057 48.156031 86.425019 48.009244 86.629319 47.876779 C 86.830034 47.747893 87.045086 47.640488 87.270891 47.550985 C 87.50028 47.461481 87.733253 47.393458 87.973395 47.346916 C 88.213536 47.303954 88.453678 47.278893 88.700988 47.278893 C 88.944714 47.278893 89.18844 47.303954 89.428581 47.346916 C 89.668723 47.393458 89.901696 47.461481 90.127501 47.550985 C 90.353305 47.640488 90.568357 47.747893 90.772657 47.876779 C 90.976957 48.009244 91.163335 48.156031 91.338961 48.320718 C 91.511003 48.485405 91.665123 48.664412 91.801323 48.857741 C 91.937523 49.051069 92.052217 49.255138 92.145407 49.469947 C 92.238596 49.688336 92.31028 49.910306 92.356875 50.135856 C 92.407053 50.364986 92.428559 50.597696 92.428559 50.830406 Z M 92.428559 50.830406 " stroke="#93583c" stroke-width="7" stroke-opacity="1" stroke-miterlimit="10"/></g><path fill="#231f20" d="M 243.882812 149.6875 C 243.882812 149.941406 243.859375 150.191406 243.804688 150.441406 C 243.753906 150.691406 243.675781 150.933594 243.574219 151.167969 C 243.472656 151.402344 243.347656 151.628906 243.199219 151.839844 C 243.050781 152.050781 242.882812 152.246094 242.691406 152.425781 C 242.503906 152.605469 242.296875 152.765625 242.078125 152.90625 C 241.855469 153.050781 241.621094 153.167969 241.375 153.265625 C 241.128906 153.363281 240.875 153.4375 240.613281 153.484375 C 240.351562 153.535156 240.085938 153.558594 239.816406 153.558594 C 239.550781 153.558594 239.285156 153.535156 239.023438 153.484375 C 238.761719 153.4375 238.507812 153.363281 238.261719 153.265625 C 238.015625 153.167969 237.78125 153.050781 237.558594 152.90625 C 237.339844 152.765625 237.132812 152.605469 236.945312 152.425781 C 236.753906 152.246094 236.585938 152.050781 236.4375 151.839844 C 236.289062 151.628906 236.164062 151.402344 236.0625 151.167969 C 235.960938 150.933594 235.882812 150.691406 235.832031 150.441406 C 235.777344 150.191406 235.753906 149.941406 235.753906 149.6875 C 235.753906 149.433594 235.777344 149.179688 235.832031 148.929688 C 235.882812 148.683594 235.960938 148.441406 236.0625 148.203125 C 236.164062 147.96875 236.289062 147.746094 236.4375 147.535156 C 236.585938 147.324219 236.753906 147.128906 236.945312 146.949219 C 237.132812 146.769531 237.339844 146.609375 237.558594 146.464844 C 237.78125 146.324219 238.015625 146.207031 238.261719 146.109375 C 238.507812 146.011719 238.761719 145.9375 239.023438 145.886719 C 239.285156 145.839844 239.550781 145.8125 239.816406 145.8125 C 240.085938 145.8125 240.351562 145.839844 240.613281 145.886719 C 240.875 145.9375 241.128906 146.011719 241.375 146.109375 C 241.621094 146.207031 241.855469 146.324219 242.078125 146.464844 C 242.296875 146.609375 242.503906 146.769531 242.691406 146.949219 C 242.882812 147.128906 243.050781 147.324219 243.199219 147.535156 C 243.347656 147.746094 243.472656 147.96875 243.574219 148.203125 C 243.675781 148.441406 243.753906 148.683594 243.804688 148.929688 C 243.859375 149.179688 243.882812 149.433594 243.882812 149.6875 Z M 243.882812 149.6875 " fill-opacity="1" fill-rule="nonzero"/><g clip-path="url(#418735e2eb)"><path stroke-linecap="butt" transform="matrix(1.089852, 0, 0, 1.091084, 37.61812, 94.227241)" fill="none" stroke-linejoin="miter" d="M 189.259373 50.830406 C 189.259373 51.063116 189.237868 51.292246 189.187689 51.521375 C 189.141094 51.750505 189.06941 51.972475 188.976221 52.187284 C 188.883032 52.402093 188.768337 52.609742 188.632138 52.803071 C 188.495938 52.996399 188.341817 53.175407 188.166191 53.340094 C 187.99415 53.504781 187.804187 53.651567 187.603472 53.780453 C 187.399172 53.912918 187.18412 54.020323 186.958315 54.109827 C 186.73251 54.199331 186.499537 54.267354 186.259396 54.310315 C 186.019254 54.356857 185.775528 54.378338 185.528218 54.378338 C 185.284493 54.378338 185.040767 54.356857 184.800625 54.310315 C 184.560484 54.267354 184.327511 54.199331 184.101706 54.109827 C 183.875901 54.020323 183.660849 53.912918 183.456549 53.780453 C 183.255834 53.651567 183.065871 53.504781 182.89383 53.340094 C 182.718204 53.175407 182.564083 52.996399 182.427883 52.803071 C 182.291683 52.609742 182.176989 52.402093 182.0838 52.187284 C 181.99061 51.972475 181.918926 51.750505 181.872332 51.521375 C 181.822153 51.292246 181.800648 51.063116 181.800648 50.830406 C 181.800648 50.597696 181.822153 50.364986 181.872332 50.135856 C 181.918926 49.910306 181.99061 49.688336 182.0838 49.469947 C 182.176989 49.255138 182.291683 49.051069 182.427883 48.857741 C 182.564083 48.664412 182.718204 48.485405 182.89383 48.320718 C 183.065871 48.156031 183.255834 48.009244 183.456549 47.876779 C 183.660849 47.747893 183.875901 47.640488 184.101706 47.550985 C 184.327511 47.461481 184.560484 47.393458 184.800625 47.346916 C 185.040767 47.303954 185.284493 47.278893 185.528218 47.278893 C 185.775528 47.278893 186.019254 47.303954 186.259396 47.346916 C 186.499537 47.393458 186.73251 47.461481 186.958315 47.550985 C 187.18412 47.640488 187.399172 47.747893 187.603472 47.876779 C 187.804187 48.009244 187.99415 48.156031 188.166191 48.320718 C 188.341817 48.485405 188.495938 48.664412 188.632138 48.857741 C 188.768337 49.051069 188.883032 49.255138 188.976221 49.469947 C 189.06941 49.688336 189.141094 49.910306 189.187689 50.135856 C 189.237868 50.364986 189.259373 50.597696 189.259373 50.830406 Z M 189.259373 50.830406 " stroke="#93583c" stroke-width="7" stroke-opacity="1" stroke-miterlimit="10"/></g></svg>