<svg xmlns="http://www.w3.org/2000/svg" xmlns:xlink="http://www.w3.org/1999/xlink" width="500" zoomAndPan="magnify" viewBox="0 0 375 374.999991" height="500" preserveAspectRatio="xMidYMid meet" version="1.0"><defs><clipPath id="d4858faf05"><path d="M 37.5 292 L 337.5 292 L 337.5 316.753906 L 37.5 316.753906 Z M 37.5 292 " clip-rule="nonzero"/></clipPath><clipPath id="6c052e73ed"><path d="M 123 58.003906 L 337.5 58.003906 L 337.5 316.753906 L 123 316.753906 Z M 123 58.003906 " clip-rule="nonzero"/></clipPath><clipPath id="06d54a38be"><path d="M 68 58.003906 L 307 58.003906 L 307 166 L 68 166 Z M 68 58.003906 " clip-rule="nonzero"/></clipPath><clipPath id="b22cbbb672"><path d="M 37.5 58.003906 L 252 58.003906 L 252 316.753906 L 37.5 316.753906 Z M 37.5 58.003906 " clip-rule="nonzero"/></clipPath><clipPath id="3d62d20219"><path d="M 37.5 100 L 337.5 100 L 337.5 316.753906 L 37.5 316.753906 Z M 37.5 100 " clip-rule="nonzero"/></clipPath></defs><path fill="#93583c" d="M 166.964844 286.078125 L 163.496094 278.402344 C 162.226562 275.59375 162.289062 272.277344 163.648438 269.585938 L 173.019531 251.136719 L 177.578125 261.050781 C 177.910156 261.78125 178.34375 262.460938 178.847656 263.054688 L 181.703125 266.433594 C 182.964844 267.917969 184.988281 268.089844 186.378906 266.820312 L 191.378906 262.257812 C 192.164062 261.546875 192.574219 260.4375 192.5 259.285156 L 190.882812 236.628906 L 199.320312 243.582031 C 201.753906 245.582031 203.800781 248.125 205.363281 251.050781 L 207.453125 254.980469 C 209.425781 258.683594 210.984375 262.632812 212.117188 266.746094 C 212.894531 269.566406 213.140625 272.535156 212.839844 275.441406 C 212.441406 279.285156 211.417969 282.988281 209.800781 286.367188 L 209.433594 287.140625 C 209.058594 287.929688 208.359375 288.433594 207.570312 288.488281 L 199.265625 289.078125 L 200.148438 285.292969 C 200.65625 283.128906 201.097656 280.953125 201.472656 278.757812 L 202.304688 273.925781 C 202.519531 272.644531 201.96875 271.339844 200.945312 270.726562 L 199.683594 269.640625 C 198.53125 268.953125 197.121094 269.480469 196.582031 270.804688 L 194.394531 277.046875 C 193.886719 278.488281 192.84375 279.597656 191.550781 280.070312 L 189.417969 280.84375 C 187.671875 281.480469 185.753906 281.15625 184.214844 279.972656 L 175.59375 273.332031 C 175.195312 273.019531 174.667969 273.386719 174.722656 273.925781 L 175.421875 280.792969 L 176.757812 288.25 L 170.972656 288.660156 C 169.324219 288.777344 167.753906 287.757812 166.988281 286.066406 Z M 166.964844 286.078125 " fill-opacity="1" fill-rule="nonzero"/><g clip-path="url(#d4858faf05)"><path stroke-linecap="butt" transform="matrix(1.077351, 0, 0, 1.076376, 37.694361, 58.00359)" fill="none" stroke-linejoin="miter" d="M 3.061051 220.401359 L 275.100591 220.401359 L 275.100591 237.389066 L 3.061051 237.389066 Z M 3.061051 220.401359 " stroke="#231f20" stroke-width="6" stroke-opacity="1" stroke-miterlimit="10"/></g><g clip-path="url(#6c052e73ed)"><path stroke-linecap="butt" transform="matrix(1.077351, 0, 0, 1.076376, 37.694361, 58.00359)" fill="none" stroke-linejoin="miter" d="M 275.100591 220.408617 C 272.881606 87.638859 174.898206 152.729972 164.510313 12.58956 " stroke="#231f20" stroke-width="6" stroke-opacity="1" stroke-miterlimit="10"/></g><g clip-path="url(#06d54a38be)"><path stroke-linecap="butt" transform="matrix(1.077351, 0, 0, 1.076376, 37.694361, 58.00359)" fill="none" stroke-linejoin="miter" d="M 113.368518 15.30048 L 113.368518 6.300371 C 113.368518 4.489461 114.829712 3.00154 116.671614 3.00154 L 161.221719 3.00154 C 163.049118 3.00154 164.52119 4.489461 164.52119 6.300371 L 164.52119 12.58956 " stroke="#231f20" stroke-width="6" stroke-opacity="1" stroke-miterlimit="10"/></g><g clip-path="url(#b22cbbb672)"><path stroke-linecap="butt" transform="matrix(1.077351, 0, 0, 1.076376, 37.694361, 58.00359)" fill="none" stroke-linejoin="miter" d="M 2.999413 220.408617 C 5.218398 88.491692 101.929145 151.891656 113.368518 15.30048 C 113.459163 14.400469 113.520801 13.489571 113.589691 12.58956 " stroke="#231f20" stroke-width="6" stroke-opacity="1" stroke-miterlimit="10"/></g><g clip-path="url(#3d62d20219)"><path stroke-linecap="butt" transform="matrix(1.077351, 0, 0, 1.076376, 37.694361, 58.00359)" fill="none" stroke-linejoin="miter" d="M 139.300182 219.330782 L 62.91925 219.370702 C 62.91925 219.370702 62.91925 219.341669 62.91925 219.330782 C 62.91925 167.409586 97.40053 124.680841 139.300182 124.680841 C 181.199833 124.680841 215.681114 167.409586 215.681114 219.330782 Z M 139.300182 219.330782 " stroke="#231f20" stroke-width="6" stroke-opacity="1" stroke-miterlimit="10"/></g></svg>