<svg xmlns="http://www.w3.org/2000/svg" xmlns:xlink="http://www.w3.org/1999/xlink" width="500" zoomAndPan="magnify" viewBox="0 0 375 374.999991" height="500" preserveAspectRatio="xMidYMid meet" version="1.0"><defs><clipPath id="3e57c98e5e"><path d="M 62.941406 272 L 285 272 L 285 337.460938 L 62.941406 337.460938 Z M 62.941406 272 " clip-rule="nonzero"/></clipPath><clipPath id="7654d36e7e"><path d="M 62.941406 198 L 284 198 L 284 337.460938 L 62.941406 337.460938 Z M 62.941406 198 " clip-rule="nonzero"/></clipPath><clipPath id="a8a89d8fd9"><path d="M 62.941406 199 L 283 199 L 283 337.460938 L 62.941406 337.460938 Z M 62.941406 199 " clip-rule="nonzero"/></clipPath><clipPath id="ef3bb0377f"><path d="M 142 126 L 311.941406 126 L 311.941406 254 L 142 254 Z M 142 126 " clip-rule="nonzero"/></clipPath><clipPath id="d3c5ab1d8e"><path d="M 146 191 L 311.941406 191 L 311.941406 268 L 146 268 Z M 146 191 " clip-rule="nonzero"/></clipPath><clipPath id="6f7407f3bd"><path d="M 154 178 L 311.941406 178 L 311.941406 254 L 154 254 Z M 154 178 " clip-rule="nonzero"/></clipPath><clipPath id="c5f587bb61"><path d="M 108 37.5 L 183 37.5 L 183 194 L 108 194 Z M 108 37.5 " clip-rule="nonzero"/></clipPath><clipPath id="089e820741"><path d="M 183 37.5 L 257 37.5 L 257 132 L 183 132 Z M 183 37.5 " clip-rule="nonzero"/></clipPath></defs><path fill="#231f20" d="M 177.765625 232.34375 C 191.421875 235.75 204.105469 242.800781 215.25 253.054688 C 232.230469 268.699219 246.960938 291.125 252.796875 319.8125 C 252.367188 319.226562 251.785156 318.667969 251.070312 318.136719 C 243.054688 290.566406 230.796875 268.917969 214.597656 253.75 C 198.65625 238.8125 179.230469 230.925781 158.429688 230.925781 C 134.996094 230.925781 112.480469 239.539062 95.035156 255.179688 C 83.234375 265.746094 74.511719 278.875 69.445312 293.328125 C 73.839844 278.558594 81.921875 265.65625 94.398438 254.476562 C 104.726562 245.210938 116.828125 238.394531 129.820312 234.328125 C 139.003906 231.464844 148.628906 229.976562 158.429688 229.976562 C 165.046875 229.976562 171.511719 230.78125 177.777344 232.34375 Z M 177.765625 232.34375 " fill-opacity="1" fill-rule="nonzero"/><path fill="#93583c" d="M 235.210938 211.335938 L 246.234375 211.335938 C 246.234375 211.734375 246.203125 212.128906 246.125 212.503906 L 242.46875 212 L 224.234375 212 C 224.203125 211.777344 224.203125 211.546875 224.203125 211.335938 L 224.203125 211.148438 Z M 235.210938 211.335938 " fill-opacity="1" fill-rule="nonzero"/><path fill="#93583c" d="M 242.46875 212.007812 L 246.125 212.515625 C 246.082031 212.835938 245.992188 213.144531 245.894531 213.441406 L 242.371094 212.957031 L 224.398438 212.957031 C 224.3125 212.636719 224.265625 212.328125 224.234375 212.007812 Z M 242.46875 212.007812 " fill-opacity="1" fill-rule="nonzero"/><path fill="#93583c" d="M 242.371094 212.945312 L 245.894531 213.429688 C 244.695312 217.175781 240.332031 219.984375 235.210938 219.984375 C 230.09375 219.984375 225.367188 216.933594 224.398438 212.945312 Z M 242.371094 212.945312 " fill-opacity="1" fill-rule="nonzero"/><g clip-path="url(#3e57c98e5e)"><path stroke-linecap="butt" transform="matrix(1.101148, 0, 0, 1.101601, 62.982312, -61.540213)" fill="none" stroke-linejoin="miter" d="M 172.37884 346.191002 C 172.96062 346.939203 173.258604 347.729955 173.279889 348.559713 C 173.460808 356.470783 134.350336 363.101755 86.708282 360.70113 C 39.069776 358.300505 -0.0903601 351.910659 1.030629 344.081147 C 1.168979 343.098912 1.559197 342.180505 2.158714 341.318833 C 2.318348 341.10962 2.470888 340.911046 2.64826 340.708925 C 10.55904 331.599316 45.490634 329.571019 88.148541 332.081569 C 128.66025 334.460918 161.72944 337.85087 170.810874 344.669779 C 171.470697 345.148486 171.988622 345.659106 172.37884 346.191002 Z M 172.37884 346.191002 " stroke="#231f20" stroke-width="2" stroke-opacity="1" stroke-miterlimit="10"/></g><g clip-path="url(#7654d36e7e)"><path stroke-linecap="butt" transform="matrix(1.101148, 0, 0, 1.101601, 62.982312, -61.540213)" fill="none" stroke-linejoin="miter" d="M 2.690829 341.379114 L 2.64826 340.708925 L 2.580858 339.609673 C 3.141353 333.489321 4.219774 327.670377 5.858689 322.138656 C 9.849553 308.731326 17.189196 297.018972 28.519704 286.870392 C 37.899122 278.459341 48.889076 272.271615 60.691393 268.580255 C 69.031413 265.981056 77.768746 264.630039 86.66926 264.630039 C 92.678615 264.630039 98.549621 265.36051 104.239707 266.7789 C 116.64154 269.87099 128.160061 276.271474 138.280894 285.579658 C 153.701594 299.781286 167.078972 320.138726 172.37884 346.180364 " stroke="#231f20" stroke-width="2" stroke-opacity="1" stroke-miterlimit="10"/></g><g clip-path="url(#a8a89d8fd9)"><path stroke-linecap="butt" transform="matrix(1.101148, 0, 0, 1.101601, 62.982312, -61.540213)" fill="none" stroke-linejoin="miter" d="M 170.800232 344.669779 C 163.520895 319.638744 152.389043 299.990499 137.681377 286.221479 C 123.200747 272.661672 105.559352 265.498803 86.66926 265.498803 C 65.391745 265.498803 44.940781 273.321223 29.101483 287.519306 C 18.381134 297.111167 10.459712 309.029188 5.858689 322.149294 C 3.698301 328.30156 2.268684 334.719774 1.640788 341.290465 L 2.151619 341.329471 " stroke="#231f20" stroke-width="2" stroke-opacity="1" stroke-miterlimit="10"/></g><path stroke-linecap="butt" transform="matrix(1.101148, 0, 0, 1.101601, 62.982312, -61.540213)" fill="none" stroke-linejoin="miter" d="M 60.659466 269.048324 L 60.691393 268.580255 L 64.611309 218.308973 " stroke="#231f20" stroke-width="2" stroke-opacity="1" stroke-miterlimit="10"/><g clip-path="url(#ef3bb0377f)"><path stroke-linecap="butt" transform="matrix(1.101148, 0, 0, 1.101601, 62.982312, -61.540213)" fill="none" stroke-linejoin="miter" d="M 101.199555 249.300791 C 100.7916 248.538407 100.600038 247.148384 100.550374 245.591702 C 100.50071 243.779709 100.660344 241.751411 100.958329 240.258556 C 103.228688 228.819242 109.390582 218.078484 120.238639 210.34826 C 133.200967 201.121634 149.881007 197.391268 166.451076 199.90891 C 167.501117 200.068479 168.540515 200.249324 169.579914 200.451444 C 194.738324 205.479637 218.15849 229.698643 224.550968 256.93882 L 224.650297 257.60901 " stroke="#231f20" stroke-width="2" stroke-opacity="1" stroke-miterlimit="10"/></g><path stroke-linecap="butt" transform="matrix(1.101148, 0, 0, 1.101601, 62.982312, -61.540213)" fill="none" stroke-linejoin="miter" d="M 108.720117 249.16959 L 108.329899 249.16959 " stroke="#231f20" stroke-width="2" stroke-opacity="1" stroke-miterlimit="10"/><g clip-path="url(#d3c5ab1d8e)"><path stroke-linecap="butt" transform="matrix(1.101148, 0, 0, 1.101601, 62.982312, -61.540213)" fill="none" stroke-linejoin="miter" d="M 224.639654 257.60901 C 224.919902 258.059348 225.051157 258.509687 225.051157 258.970664 C 225.051157 265.729292 200.928598 270.619191 158.99082 270.771668 C 136.230476 270.849679 115.350273 268.321399 103.909795 264.938539 " stroke="#231f20" stroke-width="2" stroke-opacity="1" stroke-miterlimit="10"/></g><g clip-path="url(#6f7407f3bd)"><path stroke-linecap="butt" transform="matrix(1.101148, 0, 0, 1.101601, 62.982312, -61.540213)" fill="none" stroke-linejoin="miter" d="M 111.320387 248.460395 C 111.589992 248.410751 111.859597 248.361108 112.139845 248.300826 C 122.650895 246.311534 137.869391 246.311534 158.99082 246.311534 C 190.169227 246.311534 217.750535 250.910664 223.820197 256.630321 C 224.171393 256.93882 224.440998 257.268596 224.629012 257.60901 " stroke="#231f20" stroke-width="2" stroke-opacity="1" stroke-miterlimit="10"/></g><path stroke-linecap="butt" transform="matrix(1.101148, 0, 0, 1.101601, 62.982312, -61.540213)" fill="none" stroke-linejoin="miter" d="M 105.43874 250.080905 C 106.35043 249.740492 107.308238 249.449722 108.329899 249.16959 C 109.24159 248.921372 110.199398 248.690883 111.189132 248.499401 " stroke="#231f20" stroke-width="2" stroke-opacity="1" stroke-miterlimit="10"/><path stroke-linecap="butt" transform="matrix(1.101148, 0, 0, 1.101601, 62.982312, -61.540213)" fill="none" stroke-linejoin="miter" d="M 101.628794 251.811341 C 102.781711 251.158882 104.04105 250.580888 105.431645 250.080905 " stroke="#231f20" stroke-width="2" stroke-opacity="1" stroke-miterlimit="10"/><path stroke-linecap="butt" transform="matrix(1.101148, 0, 0, 1.101601, 62.982312, -61.540213)" fill="none" stroke-linejoin="miter" d="M 136.588767 202.160604 L 139.458642 163.778975 " stroke="#231f20" stroke-width="2" stroke-opacity="1" stroke-miterlimit="10"/><path stroke-linecap="butt" transform="matrix(1.101148, 0, 0, 1.101601, 62.982312, -61.540213)" fill="none" stroke-linejoin="miter" d="M 159.090148 162.878297 L 166.451076 199.90891 L 166.571689 200.501088 " stroke="#231f20" stroke-width="2" stroke-opacity="1" stroke-miterlimit="10"/><path stroke-linecap="butt" transform="matrix(1.101148, 0, 0, 1.101601, 62.982312, -61.540213)" fill="none" stroke-linejoin="miter" d="M 95.860665 218.589105 L 100.550374 245.591702 L 101.199555 249.300791 L 101.628794 251.811341 L 103.909795 264.931447 L 104.239707 266.7789 L 104.310655 267.200871 " stroke="#231f20" stroke-width="2" stroke-opacity="1" stroke-miterlimit="10"/><path stroke-linecap="butt" transform="matrix(1.101148, 0, 0, 1.101601, 62.982312, -61.540213)" fill="none" stroke-linejoin="miter" d="M 105.431645 250.080905 C 106.800955 249.701486 107.868733 249.410716 108.709475 249.16959 C 109.968814 248.818539 110.731513 248.619964 111.171395 248.499401 C 111.210417 248.481671 111.260081 248.471033 111.299102 248.471033 L 111.838313 248.318556 " stroke="#231f20" stroke-width="2" stroke-opacity="1" stroke-miterlimit="10"/><path stroke-linecap="butt" transform="matrix(1.101148, 0, 0, 1.101601, 62.982312, -61.540213)" fill="none" stroke-linejoin="miter" d="M 146.439995 248.318556 C 146.411615 248.119982 146.411615 247.910769 146.411615 247.719286 L 146.411615 247.54908 L 156.408287 247.719286 L 166.419149 247.719286 C 166.419149 248.080976 166.39077 248.439119 166.319821 248.779533 C 166.280799 249.070303 166.199208 249.350435 166.110522 249.619929 C 165.02146 253.020518 161.058975 255.570074 156.408287 255.570074 C 151.761147 255.570074 147.468751 252.800668 146.588987 249.180228 C 146.510943 248.889458 146.468374 248.609326 146.439995 248.318556 Z M 146.439995 248.318556 " stroke="#231f20" stroke-width="1" stroke-opacity="1" stroke-miterlimit="10"/><path stroke-linecap="butt" transform="matrix(1.101148, 0, 0, 1.101601, 62.982312, -61.540213)" fill="none" stroke-linejoin="miter" d="M 80.230666 218.589105 L 64.611309 218.308973 C 64.749659 208.809307 71.759391 201.079082 80.230666 201.079082 C 88.698393 201.079082 95.850022 208.979513 95.850022 218.589105 Z M 80.230666 218.589105 " stroke="#231f20" stroke-width="2" stroke-opacity="1" stroke-miterlimit="10"/><path stroke-linecap="butt" transform="matrix(1.101148, 0, 0, 1.101601, 62.982312, -61.540213)" fill-opacity="1" fill="#231f20" fill-rule="nonzero" stroke-linejoin="miter" d="M 80.028462 202.171242 L 73.490539 202.029403 C 73.529561 195.951603 76.470384 190.990784 80.028462 190.990784 C 83.590087 190.990784 86.569932 196.040252 86.569932 202.171242 Z M 80.028462 202.171242 " stroke="#231f20" stroke-width="2" stroke-opacity="1" stroke-miterlimit="10"/><g clip-path="url(#c5f587bb61)"><path stroke-linecap="butt" transform="matrix(1.101148, 0, 0, 1.101601, 62.982312, -61.540213)" fill="none" stroke-linejoin="miter" d="M 69.45001 14.241678 L 80.230666 202.809518 " stroke="#231f20" stroke-width="2" stroke-opacity="1" stroke-miterlimit="10"/></g><path stroke-linecap="butt" transform="matrix(1.101148, 0, 0, 1.101601, 62.982312, -61.540213)" fill="none" stroke-linejoin="miter" d="M 149.28149 163.438561 L 138.639185 163.828618 C 138.309273 156.410439 142.74002 150.109243 148.501054 149.779467 C 154.32949 149.449691 159.491008 155.339555 159.909606 162.828654 Z M 149.28149 163.438561 " stroke="#231f20" stroke-width="2" stroke-opacity="1" stroke-miterlimit="10"/><g clip-path="url(#089e820741)"><path stroke-linecap="butt" transform="matrix(1.101148, 0, 0, 1.101601, 62.982312, -61.540213)" fill="none" stroke-linejoin="miter" d="M 138.029026 0.0613257 L 147.550342 147.038428 " stroke="#231f20" stroke-width="2" stroke-opacity="1" stroke-miterlimit="10"/></g><path stroke-linecap="butt" transform="matrix(1.101148, 0, 0, 1.101601, 62.982312, -61.540213)" fill-opacity="1" fill="#231f20" fill-rule="nonzero" stroke-linejoin="miter" d="M 148.380442 150.371645 L 142.981245 150.999282 C 142.431393 146.708653 144.378935 142.879 147.309116 142.478305 C 150.271225 142.081156 153.180121 145.311539 153.768996 149.630536 L 148.380442 150.361007 Z M 148.380442 150.371645 " stroke="#231f20" stroke-width="2" stroke-opacity="1" stroke-miterlimit="10"/><path stroke-linecap="butt" transform="matrix(1.101148, 0, 0, 1.101601, 62.982312, -61.540213)" fill-opacity="1" fill="#93583c" fill-rule="nonzero" stroke-linejoin="miter" d="M 84.89909 333.741085 L 97.861418 334.241068 C 97.439273 339.769242 92.029435 344.258446 85.409921 344.570492 C 78.290219 344.910905 72.199273 340.301138 71.908383 334.350993 C 71.890646 333.978665 71.901288 333.609884 71.929668 333.241103 L 84.888448 333.730447 Z M 84.89909 333.741085 " stroke="#231f20" stroke-width="1" stroke-opacity="1" stroke-miterlimit="10"/></svg>