<?xml version="1.0" encoding="UTF-8"?>
<svg id="Layer_1" data-name="Layer 1" xmlns="http://www.w3.org/2000/svg" viewBox="0 0 268.65 241.53">
  <defs>
    <style>
      .cls-1 {
        stroke-width: 0px;
      }
    </style>
  </defs>
  <path class="cls-1" d="m4.67,236.12h92.6c-20.1-15.36-26.83-34.87-20.05-58.64,2.72-9.53,8.4-17.37,16.42-24.07-.11,8.44-1,16.49,3.93,23.42.2-.03.41-.07.61-.1-.27-1.74-.47-3.48-.81-5.2-2.03-10.38,2.22-18.54,9.16-25.7,3.75-3.86,7.75-7.49,11.47-11.38,2.7-2.82,5.1-6.05,5.19-10.12.06-2.65-.77-5.33-1.25-7.99-.13-.75-.41-1.47-.75-2.65,1.37.6,2.38.94,3.28,1.46,9.01,5.24,12.89,13.17,11.85,23.43-.56,5.53-1.67,10.99-2.35,16.51-.58,4.71.93,8.87,4.13,12.53-.15-9.2-.48-18.37,6.28-25.86,3.69-4.09,8-7.31,13.05-10.4-.22,1.04-.33,1.71-.49,2.36-.6,2.53-1.32,5.03-1.81,7.58-1.21,6.29.56,11.84,4.46,16.79,2.66,3.38,5.48,6.63,7.96,10.13,4.43,6.26,6.15,13.46,6.72,21,.7,9.19-.08,18.12-4.42,26.49-4.24,8.17-10.73,14.1-18.5,18.73-2.9,1.73-6,3.11-9.02,4.63-.48.24-1.02.47-1.54.47-.6,0-1.39-.07-1.75-.44-.25-.26-.08-1.16.17-1.64.54-1.01,1.23-1.94,1.9-2.87,3.54-4.94,5.9-10.31,5.6-16.52-.1-2.13-.7-4.23-1.13-6.68-4.87,3.73-9.44,3.64-13.91.4-4.62-3.35-4.47-8.36-4.18-13.76-6.98,3.75-8.98,9.86-9.5,17.31-1.13-7.02,3.75-17.91,11.01-18.87,0,2.37-.18,4.74.04,7.07.45,4.74,3.3,7.81,7.55,8.56,2.52.44,4.46-.64,6.27-2.18.87-.74,1.71-1.5,2.73-2.39,2.74,4.13,3.16,8.92,3.11,13.84-.05,5.07-2.15,9.48-4.78,14.33,1.35-.59,2.24-.86,3.02-1.33,12.17-7.23,20.3-17.5,22.92-31.58,2.49-13.39.1-25.77-8.61-36.59-2.24-2.78-4.45-5.59-6.76-8.31-3.11-3.66-4.56-7.92-4.74-12.66-.03-.84,0-1.69-.41-2.84-.82.86-1.79,1.61-2.42,2.59-3.57,5.46-4.63,11.59-3.89,17.9.42,3.54,1.82,6.97,2.79,10.44.29,1.04.77,2.06.9,3.12.29,2.35-1.77,3.89-3.69,2.57-4.81-3.33-9.8-6.61-12.55-12.06-2.57-5.1-2.36-10.53-1.34-15.98.75-3.98,1.58-7.94,2.18-11.94.69-4.56-.9-8.67-2.94-13.07-.27.84-.51,1.31-.58,1.81-.73,5.23-3.74,9.1-7.5,12.48-3.42,3.08-6.99,5.98-10.36,9.11-5.19,4.83-8.22,10.72-8.08,17.97.11,6.15,1.56,11.86,5.74,16.61.48.54.91,1.13,1.35,1.71.81,1.08.99,2.17.09,3.31-.86,1.09-1.99,1.44-3.23.94-1.39-.57-2.83-1.15-4.02-2.04-5.59-4.2-10-9.29-11.82-16.26-.3-1.15-.76-2.26-1.33-3.92-1.06,1.48-2.01,2.54-2.67,3.76-11.38,21.14-5.88,45.55,13.65,58.78,3.44,2.33,7.26,4.08,10.91,6.1.48.26,1.09.42,1.4.81.56.69,1.47,1.74,1.27,2.25-.34.84-1.38,1.5-2.26,1.99-.52.28-1.3.09-1.97.09-35.31-.17-70.61-.35-105.92-.53-2.94-.01-3.12-.02-3.02-3,.26-7.5.52-15.01,1.12-22.49,1.14-14.18,2.83-28.29,6.09-42.17,4.43-18.8,10.92-36.79,22-52.78,13.82-19.95,32.59-33.13,55.94-39.76,2.21-.63,4.41-1.29,6.63-1.87,1.16-.3,1.58-.88,1.61-2.15.16-6.35.47-12.7,1.01-19.04,0,6.69-.07,13.38.05,20.07.03,1.64-.93,1.89-2.02,2.25-5.15,1.73-10.43,3.17-15.44,5.23-21.68,8.91-38.04,23.89-49.62,44.18-7.35,12.87-12,26.77-15.5,41.09-5.07,20.79-7.72,41.87-7.23,63.31.02.77,0,1.55,0,2.3Z"/>
  <path class="cls-1" d="m152.98.7c1.48-.12,2.97-.3,4.46-.36,3.81-.14,7.62-.47,11.42-.28,5.45.27,8.72,3.15,9.84,8.51.61,2.95.96,5.98,1.05,8.99.38,12.71.57,25.43.94,38.14.13,4.47.52,8.94.93,13.39.43,4.62,2.98,7.53,7.36,9.18,5.7,2.15,11.51,4.19,16.88,7.01,17.92,9.41,31.84,23.04,41.71,40.77,8.95,16.08,14.5,33.31,17.71,51.36,3.17,17.84,3.67,35.86,3.27,53.92-.02.78-.12,1.57-.22,2.35-.06.52-.18,1.03-.66,1.57-.17-1.4-.35-2.79-.5-4.19-1.12-10.1-1.93-20.24-3.43-30.29-3-20.1-7.76-39.75-16.56-58.21-4.91-10.31-10.68-20.11-18.37-28.61-11.4-12.59-24.95-22.1-41.08-27.73-1.37-.48-2.69-1.08-4.03-1.63-5.54-2.3-8.84-6.49-9.22-12.41-.51-7.9-.83-15.84-.65-23.75.24-10.83,1.07-21.64,1.56-32.47.1-2.11-.02-4.24-.28-6.34-.46-3.75-2.7-6.33-6.42-6.91-4.23-.66-8.53-.88-12.8-1.29-.95-.09-1.9-.13-2.85-.19-.02-.18-.03-.36-.05-.55Z"/>
</svg>