<svg width="96" height="33" viewBox="0 0 96 33" fill="none" xmlns="http://www.w3.org/2000/svg">
<path d="M34.3186 8.31123C33.6949 7.10204 32.7678 6.07653 31.5711 5.25C29.9023 1.9898 26.0255 0 20.4462 0H8.73135L0 26.8776H3.74201L2.74751 29.9388H6.48952L5.49502 33H17.2099C26.5986 33 34.7568 27.398 37.3021 19.5612C38.8865 14.6633 37.7235 10.6224 34.3186 8.29592V8.31123ZM2.74751 25.1173L10.3327 1.7602H19.7214C22.5869 1.7602 24.913 2.32653 26.6491 3.33674C25.5872 3.15306 24.441 3.06122 23.2106 3.06122H11.4957L4.34882 25.1173H2.76437H2.74751ZM5.49502 28.1786L13.0802 4.82143H22.4689C25.3344 4.82143 27.6605 5.38776 29.3967 6.39796C28.3347 6.21429 27.1885 6.12245 25.9581 6.12245H14.2432L7.09633 28.1786H5.51187H5.49502ZM35.1614 19.5612C32.9364 26.4031 26.0086 31.2398 17.6313 31.2398H8.24253L15.8277 7.88266H25.2164C33.5938 7.88266 37.3863 12.7194 35.1782 19.5612H35.1614Z" fill="#BB002E"/>
<path d="M24.0871 15.4592H20.4968L17.8335 23.6786H20.0248L22.0306 17.4796H25.6209C26.4637 17.4796 27.1885 17.6327 27.7616 17.9082C27.5594 16.4235 26.2446 15.4592 24.1039 15.4592H24.0871Z" fill="#BB002E"/>
<path d="M56.9036 15.0252L53.5069 26.0147H51.4311L54.8278 15.0252H51.4826L52.0144 13.2793H60.6606L60.1116 15.0252H56.9036Z" fill="#BB002E"/>
<path d="M67.231 13.2793L63.2853 26.0147H61.2095L65.1552 13.2793H67.231Z" fill="#BB002E"/>
<path d="M80.3717 14.9004L78.7763 16.1007C78.2616 15.2278 77.5926 14.7757 76.7348 14.7757C75.8771 14.7757 75.5683 14.9472 75.1051 15.2901C74.6419 15.6331 74.3674 16.0695 74.2645 16.5995C74.1959 17.0204 74.2645 17.3789 74.4875 17.6751C74.6076 17.8154 74.7792 17.9869 75.0193 18.1583C75.2595 18.3454 75.5511 18.548 75.9286 18.7663C77.0265 19.4054 77.7298 19.9821 78.0386 20.4965C78.3646 21.0265 78.4503 21.6968 78.2959 22.5542C78.1072 23.6609 77.5411 24.5494 76.6319 25.2197C75.7227 25.9056 74.6248 26.2485 73.3381 26.2485C72.0515 26.2485 71.4511 26.0459 70.7992 25.6406C70.4732 25.4379 70.1816 25.1729 69.9243 24.8456C69.6669 24.5182 69.4268 24.1285 69.2209 23.6609L70.9707 22.6944C71.2795 23.3803 71.6226 23.848 71.9829 24.113C72.3431 24.378 72.8578 24.5027 73.5268 24.5027C74.1959 24.5027 74.8649 24.3312 75.3453 23.9727C75.8256 23.6141 76.1173 23.1153 76.2373 22.4762C76.3231 22.0242 76.2373 21.65 75.98 21.3383C75.8599 21.1824 75.6541 20.9954 75.3967 20.8083C75.1394 20.6057 74.7963 20.3874 74.3674 20.138C73.4067 19.5768 72.772 19.0313 72.4461 18.5169C72.1373 18.0025 72.0515 17.3633 72.1887 16.5995C72.3603 15.5707 72.9093 14.7134 73.8185 14.0431C74.7277 13.3572 75.7742 13.0143 76.975 13.0143C78.1759 13.0143 78.3989 13.1546 78.8964 13.4507C79.411 13.7313 79.9085 14.2302 80.3717 14.916V14.9004Z" fill="#BB002E"/>
<path d="M88.4346 13.2793L86.7534 18.6883L93.3753 13.2793H96L88.4175 19.2027L93.1179 26.0147H90.6133L86.4103 19.7951L84.4889 26.0147H82.4132L86.3588 13.2793H88.4346Z" fill="#BB002E"/>
</svg>
